<?xml version="1.0" encoding="UTF-8" standalone="no"?>
<!DOCTYPE svg PUBLIC "-//W3C//DTD SVG 1.1//EN" "http://www.w3.org/Graphics/SVG/1.1/DTD/svg11.dtd">
<svg width="100%" height="100%" viewBox="0 0 448 389" version="1.1" xmlns="http://www.w3.org/2000/svg" xmlns:xlink="http://www.w3.org/1999/xlink" xml:space="preserve" xmlns:serif="http://www.serif.com/" style="fill-rule:evenodd;clip-rule:evenodd;stroke-linejoin:round;stroke-miterlimit:2;">
    <g transform="matrix(1,0,0,1,-238.278,-305.088)">
        <g>
            <g>
                <path d="M240.96,655.35C240.53,655.35 240.1,655.24 239.71,655L239.52,654.89C238.33,654.2 237.92,652.67 238.62,651.47C239.31,650.28 240.84,649.87 242.04,650.57L242.22,650.67C243.41,651.37 243.82,652.92 243.12,654.11C242.64,654.91 241.81,655.35 240.96,655.35Z" style="fill:rgb(255,0,97);fill-rule:nonzero;"/>
            </g>
            <g>
                <path d="M291,660.68C290.57,660.68 290.14,660.57 289.75,660.34L251.21,637.95C250.02,637.26 249.61,635.73 250.3,634.53C250.99,633.34 252.52,632.93 253.72,633.62L292.26,656.01C293.45,656.7 293.86,658.23 293.17,659.43C292.7,660.24 291.86,660.68 291,660.68Z" style="fill:rgb(255,0,97);fill-rule:nonzero;"/>
            </g>
            <g>
                <path d="M342.35,666.07C341.93,666.07 341.5,665.96 341.11,665.74L262.85,621.1C261.65,620.42 261.23,618.89 261.92,617.69C262.6,616.49 264.13,616.07 265.33,616.76L343.59,661.4C344.79,662.08 345.21,663.61 344.52,664.81C344.06,665.62 343.22,666.07 342.35,666.07Z" style="fill:rgb(255,35,96);fill-rule:nonzero;"/>
            </g>
            <g>
                <path d="M395.04,671.53C394.63,671.53 394.21,671.43 393.82,671.21L274.44,604.34C273.24,603.67 272.81,602.14 273.48,600.94C274.15,599.73 275.68,599.31 276.88,599.98L396.26,666.85C397.46,667.52 397.89,669.05 397.22,670.25C396.76,671.07 395.92,671.53 395.04,671.53Z" style="fill:rgb(255,51,94);fill-rule:nonzero;"/>
            </g>
            <g>
                <path d="M449.07,677.06C448.66,677.06 448.25,676.96 447.87,676.75L285.98,587.66C284.77,586.99 284.33,585.47 284.99,584.26C285.66,583.05 287.17,582.61 288.39,583.27L450.28,672.36C451.49,673.03 451.93,674.55 451.27,675.76C450.8,676.59 449.95,677.06 449.07,677.06Z" style="fill:rgb(255,67,94);fill-rule:nonzero;"/>
            </g>
            <g>
                <path d="M504.43,682.65C504.03,682.65 503.62,682.55 503.24,682.35L297.44,571.07C296.23,570.41 295.77,568.9 296.43,567.68C297.09,566.47 298.61,566.02 299.82,566.67L505.62,677.95C506.83,678.61 507.29,680.12 506.63,681.34C506.18,682.18 505.32,682.65 504.43,682.65Z" style="fill:rgb(255,80,93);fill-rule:nonzero;"/>
            </g>
            <g>
                <path d="M561.13,688.32C560.73,688.32 560.33,688.23 559.96,688.03L308.86,554.58C307.64,553.93 307.18,552.42 307.83,551.2C308.48,549.98 309.99,549.52 311.21,550.16L562.31,683.61C563.53,684.26 563.99,685.77 563.34,686.99C562.89,687.83 562.03,688.32 561.13,688.32Z" style="fill:rgb(255,103,91);fill-rule:nonzero;"/>
            </g>
            <g>
                <path d="M615.63,693.28C614.78,693.28 613.96,692.85 613.49,692.07C613.4,691.92 613.32,691.78 613.23,691.63C613.11,691.43 612.96,691.15 612.88,691.07C612.79,691.01 612.49,690.87 612.22,690.74C612,690.64 611.79,690.54 611.59,690.43L320.22,538.15C319,537.51 318.52,536 319.16,534.78C319.8,533.56 321.31,533.08 322.53,533.72L613.9,686C614.04,686.07 614.19,686.14 614.35,686.22C614.8,686.43 615.31,686.67 615.81,687.02C616.73,687.67 617.22,688.53 617.57,689.15C617.63,689.26 617.69,689.37 617.76,689.47C618.47,690.65 618.1,692.19 616.91,692.9C616.52,693.16 616.07,693.28 615.63,693.28Z" style="fill:rgb(255,113,90);fill-rule:nonzero;"/>
            </g>
            <g>
                <path d="M619.73,687.26C618.88,687.26 618.06,686.83 617.59,686.05L602.86,661.68C602.71,661.48 601.94,661.13 601.48,660.92C601.16,660.77 600.85,660.63 600.56,660.48L331.52,521.82C330.29,521.19 329.81,519.68 330.44,518.45C331.07,517.22 332.58,516.74 333.81,517.37L602.84,656.04C603.06,656.16 603.3,656.26 603.54,656.37C604.67,656.88 606.22,657.59 607.13,659.1L621.86,683.47C622.57,684.65 622.2,686.19 621.01,686.9C620.61,687.15 620.17,687.26 619.73,687.26Z" style="fill:rgb(255,124,88);fill-rule:nonzero;"/>
            </g>
            <g>
                <path d="M623.71,681.32C622.86,681.32 622.04,680.89 621.57,680.11L592.96,632.71C592.86,632.65 592.75,632.59 592.62,632.53L342.76,505.58C341.53,504.95 341.04,503.45 341.66,502.22C342.29,500.99 343.79,500.5 345.02,501.12L594.87,628.07C595.63,628.45 596.48,628.89 597.23,630.13L625.84,677.53C626.55,678.71 626.17,680.25 624.99,680.96C624.6,681.21 624.15,681.32 623.71,681.32Z" style="fill:rgb(255,141,85);fill-rule:nonzero;"/>
            </g>
            <g>
                <path d="M627.58,675.46C626.73,675.46 625.91,675.03 625.44,674.25L583.8,605.17C583.68,604.97 583.56,604.74 583.44,604.49C583.38,604.38 583.31,604.22 583.25,604.12C583.1,604.05 582.74,603.9 582.51,603.8C582.18,603.67 581.87,603.53 581.6,603.4L353.94,489.42C352.71,488.8 352.21,487.3 352.82,486.07C353.43,484.84 354.94,484.34 356.18,484.95L583.82,598.94C583.98,599.02 584.18,599.1 584.38,599.18C585.09,599.47 585.98,599.83 586.69,600.49C587.29,601.05 587.65,601.75 587.9,602.26C587.96,602.38 588.02,602.5 588.07,602.6L629.71,671.68C630.42,672.86 630.04,674.4 628.86,675.11C628.47,675.35 628.02,675.46 627.58,675.46Z" style="fill:rgb(255,150,85);fill-rule:nonzero;"/>
            </g>
            <g>
                <path d="M631.35,669.67C630.5,669.67 629.68,669.24 629.21,668.46L575.57,579.37C575.33,578.97 575.1,578.56 574.87,578.14C574.48,577.43 574.11,576.77 573.7,576.22C573.56,576.13 573.24,575.99 573.02,575.89C572.8,575.79 572.59,575.7 572.39,575.6L365.09,473.35C363.85,472.74 363.34,471.24 363.95,470C364.56,468.76 366.06,468.25 367.3,468.86L574.6,571.11C574.74,571.18 574.89,571.24 575.04,571.31C575.82,571.65 576.88,572.12 577.64,573.13C578.28,573.97 578.77,574.85 579.24,575.71C579.44,576.08 579.64,576.44 579.86,576.79L633.5,665.88C634.21,667.06 633.83,668.6 632.65,669.31C632.23,669.56 631.78,669.67 631.35,669.67Z" style="fill:rgb(255,166,82);fill-rule:nonzero;"/>
            </g>
            <g>
                <path d="M635,663.96C634.15,663.96 633.32,663.53 632.86,662.75L564.87,549.68C564.75,549.48 564.63,549.25 564.51,549C564.45,548.88 564.4,548.76 564.33,548.65C564.18,548.58 563.82,548.44 563.6,548.35C563.27,548.22 562.95,548.09 562.69,547.96L376.16,457.36C374.92,456.76 374.4,455.26 375,454.02C375.6,452.78 377.1,452.26 378.34,452.86L564.87,543.46C565.03,543.54 565.23,543.61 565.43,543.69C566.15,543.97 567.05,544.33 567.77,544.98C568.38,545.53 568.73,546.24 568.99,546.76C569.05,546.88 569.11,547 569.17,547.1L637.16,660.17C637.87,661.35 637.49,662.89 636.31,663.6C635.88,663.84 635.44,663.96 635,663.96Z" style="fill:rgb(255,182,80);fill-rule:nonzero;"/>
            </g>
            <g>
                <path d="M638.54,658.32C637.69,658.32 636.86,657.89 636.39,657.11L555.1,521.76C555.01,521.71 554.91,521.67 554.79,521.61L387.15,441.47C385.9,440.87 385.38,439.38 385.97,438.14C386.56,436.89 388.06,436.37 389.3,436.96L556.94,517.1C557.72,517.47 558.61,517.89 559.37,519.17L640.67,654.54C641.38,655.72 641,657.26 639.81,657.97C639.42,658.2 638.98,658.32 638.54,658.32Z" style="fill:rgb(255,190,79);fill-rule:nonzero;"/>
            </g>
            <g>
                <path d="M641.97,652.75C641.12,652.75 640.29,652.32 639.82,651.54L546.08,495.25C546.02,495.22 545.96,495.19 545.89,495.16L521,483.45L398.11,425.66C396.86,425.07 396.32,423.58 396.91,422.33C397.5,421.08 398.99,420.54 400.24,421.13L548.01,490.62C548.75,490.97 549.59,491.36 550.36,492.64L644.12,648.96C644.83,650.14 644.45,651.68 643.26,652.39C642.85,652.64 642.4,652.75 641.97,652.75Z" style="fill:rgb(255,204,75);fill-rule:nonzero;"/>
            </g>
            <g>
                <path d="M645.29,647.26C644.44,647.26 643.61,646.83 643.14,646.04L538.34,471.07C538.18,470.81 538.03,470.52 537.88,470.24C537.68,469.87 537.48,469.49 537.3,469.25C537.22,469.21 537.07,469.14 536.96,469.09L532.81,467.17L409.03,409.93C407.78,409.35 407.23,407.86 407.81,406.61C408.39,405.36 409.88,404.82 411.13,405.39L538.98,464.51C539.59,464.78 540.42,465.14 541.12,466.01C541.62,466.62 541.98,467.28 542.29,467.87C542.41,468.09 542.52,468.3 542.64,468.5L647.44,643.48C648.15,644.66 647.76,646.2 646.58,646.91C646.17,647.15 645.72,647.26 645.29,647.26Z" style="fill:rgb(255,217,74);fill-rule:nonzero;"/>
            </g>
            <g>
                <path d="M648.49,641.85C647.64,641.85 646.81,641.42 646.34,640.63L530.12,446.32C529.93,446 529.74,445.64 529.54,445.25C529.29,444.77 528.83,443.89 528.58,443.67C528.02,443.31 527.22,442.99 526.37,442.65C525.88,442.45 525.4,442.26 524.94,442.05L419.86,394.3C418.6,393.73 418.05,392.25 418.62,390.99C419.19,389.73 420.68,389.18 421.93,389.75L527.02,437.51C527.41,437.69 527.82,437.85 528.23,438.02C529.22,438.41 530.33,438.86 531.33,439.5C532.63,440.34 533.38,441.79 533.98,442.95C534.13,443.24 534.27,443.52 534.41,443.75L650.63,638.06C651.34,639.24 650.95,640.78 649.77,641.49C649.37,641.73 648.93,641.85 648.49,641.85Z" style="fill:rgb(255,231,72);fill-rule:nonzero;"/>
            </g>
            <g>
                <path d="M651.59,636.51C650.74,636.51 649.91,636.08 649.44,635.29L520.59,419.56C520.49,419.4 520.4,419.23 520.31,419.06C520.24,418.93 520.14,418.74 520.07,418.64C519.5,418.32 518.82,418.05 518.1,417.76C517.66,417.58 517.22,417.4 516.79,417.21L430.65,378.75C429.39,378.19 428.82,376.71 429.39,375.45C429.95,374.19 431.43,373.62 432.69,374.19L518.83,412.65C519.2,412.82 519.58,412.97 519.97,413.12C520.88,413.49 521.83,413.87 522.75,414.41C523.82,415.04 524.35,416.02 524.71,416.67C524.77,416.78 524.83,416.89 524.89,417L653.75,632.73C654.46,633.92 654.07,635.45 652.89,636.16C652.47,636.39 652.03,636.51 651.59,636.51Z" style="fill:rgb(255,238,70);fill-rule:nonzero;"/>
            </g>
            <g>
                <path d="M654.57,631.24C653.72,631.24 652.89,630.81 652.42,630.02L512.25,395.01C512.13,394.81 512.01,394.57 511.89,394.32C511.84,394.22 511.8,394.12 511.75,394.03C511.55,393.95 511.25,393.84 511.06,393.77C510.72,393.65 510.4,393.54 510.13,393.42L441.38,363.29C440.12,362.74 439.54,361.26 440.09,360C440.64,358.74 442.12,358.16 443.38,358.71L512.13,388.85C512.29,388.92 512.48,388.98 512.68,389.05C513.43,389.31 514.37,389.63 515.11,390.29C515.75,390.85 516.11,391.59 516.37,392.12C516.43,392.24 516.48,392.36 516.54,392.45L656.71,627.46C657.42,628.65 657.03,630.18 655.84,630.89C655.45,631.13 655.01,631.24 654.57,631.24Z" style="fill:rgb(255,250,67);fill-rule:nonzero;"/>
            </g>
            <g>
                <path d="M657.45,626.05C656.6,626.05 655.77,625.61 655.3,624.83L503.72,370.32C503.67,370.24 503.63,370.16 503.58,370.08L452.04,347.92C450.77,347.37 450.19,345.9 450.73,344.64C451.28,343.37 452.75,342.79 454.01,343.33L505.62,365.52C506.3,365.81 506.86,366.1 507.48,366.9C507.69,367.17 507.84,367.44 507.94,367.64L509.32,369.96L659.59,622.28C660.3,623.47 659.91,625 658.72,625.71C658.33,625.93 657.88,626.05 657.45,626.05Z" style="fill:rgb(255,255,65);fill-rule:nonzero;"/>
            </g>
            <g>
                <path d="M660.21,620.93C659.36,620.93 658.53,620.49 658.06,619.71L496.3,347.69C496.17,347.47 496.03,347.2 495.89,346.91C495.83,346.78 495.73,346.59 495.66,346.45C495.51,346.39 495.31,346.33 495.18,346.28C494.88,346.18 494.59,346.08 494.36,345.98L462.67,332.61C461.4,332.07 460.8,330.61 461.34,329.33C461.88,328.06 463.34,327.46 464.62,328L496.31,341.37C496.43,341.42 496.59,341.47 496.75,341.52C497.43,341.74 498.29,342.02 498.98,342.63C499.68,343.24 500.08,344.05 500.4,344.71C500.47,344.86 500.54,345.01 500.61,345.13L662.37,617.15C663.08,618.34 662.69,619.87 661.5,620.58C661.09,620.82 660.65,620.93 660.21,620.93Z" style="fill:rgb(255,255,65);fill-rule:nonzero;"/>
            </g>
            <g>
                <path d="M662.87,615.89C662.02,615.89 661.19,615.45 660.72,614.67L487.75,323.42L473.22,317.41C471.94,316.88 471.34,315.42 471.86,314.15C472.39,312.87 473.85,312.27 475.13,312.79L489.81,318.86C490.88,319.3 491.45,319.79 492.05,320.8L665.02,612.11C665.73,613.3 665.33,614.83 664.15,615.54C663.74,615.78 663.3,615.89 662.87,615.89Z" style="fill:rgb(255,255,63);fill-rule:nonzero;"/>
            </g>
            <g>
                <path d="M665.41,610.92C664.56,610.92 663.72,610.48 663.26,609.69L484.91,308.86C484.21,307.67 484.6,306.14 485.79,305.44C486.98,304.73 488.51,305.13 489.22,306.32L667.56,607.15C668.26,608.34 667.87,609.87 666.68,610.57C666.28,610.81 665.84,610.92 665.41,610.92Z" style="fill:rgb(255,255,63);fill-rule:nonzero;"/>
            </g>
            <g>
                <path d="M667.84,606.03C666.99,606.03 666.15,605.59 665.69,604.8L510.46,342.54C509.76,341.35 510.15,339.82 511.34,339.12C512.53,338.42 514.06,338.81 514.76,340L669.99,602.26C670.69,603.45 670.3,604.98 669.11,605.68C668.71,605.92 668.27,606.03 667.84,606.03Z" style="fill:rgb(255,255,61);fill-rule:nonzero;"/>
            </g>
            <g>
                <path d="M670.16,601.21C669.3,601.21 668.47,600.77 668.01,599.98L535.06,375C534.36,373.81 534.75,372.28 535.94,371.58C537.13,370.88 538.66,371.27 539.36,372.46L672.3,597.44C673,598.63 672.61,600.16 671.42,600.86C671.03,601.1 670.59,601.21 670.16,601.21Z" style="fill:rgb(255,255,61);fill-rule:nonzero;"/>
            </g>
            <g>
                <path d="M672.37,596.47C671.51,596.47 670.68,596.03 670.21,595.24L558.73,406.24C558.03,405.05 558.42,403.52 559.61,402.82C560.8,402.12 562.33,402.51 563.03,403.7L674.51,592.7C675.21,593.89 674.82,595.42 673.63,596.12C673.23,596.36 672.8,596.47 672.37,596.47Z" style="fill:rgb(255,255,61);fill-rule:nonzero;"/>
            </g>
            <g>
                <path d="M674.46,591.8C673.6,591.8 672.77,591.36 672.3,590.57L581.44,436.25C580.74,435.06 581.14,433.53 582.33,432.83C583.52,432.13 585.05,432.53 585.75,433.72L676.61,588.04C677.31,589.23 676.91,590.76 675.72,591.46C675.33,591.69 674.89,591.8 674.46,591.8Z" style="fill:rgb(255,255,61);fill-rule:nonzero;"/>
            </g>
            <g>
                <path d="M676.45,587.21C675.59,587.21 674.76,586.77 674.29,585.98L603.22,465.05C602.52,463.86 602.92,462.33 604.11,461.63C605.3,460.93 606.83,461.33 607.53,462.52L678.6,583.45C679.3,584.64 678.9,586.17 677.71,586.87C677.32,587.1 676.88,587.21 676.45,587.21Z" style="fill:rgb(255,255,61);fill-rule:nonzero;"/>
            </g>
            <g>
                <path d="M678.33,582.69C677.47,582.69 676.64,582.25 676.17,581.45L624.07,492.61C623.37,491.42 623.77,489.89 624.96,489.19C626.15,488.49 627.68,488.89 628.38,490.08L680.48,578.92C681.18,580.11 680.78,581.64 679.59,582.34C679.19,582.58 678.75,582.69 678.33,582.69Z" style="fill:rgb(255,255,61);fill-rule:nonzero;"/>
            </g>
            <g>
                <path d="M680.09,578.24C679.23,578.24 678.4,577.8 677.93,577L643.96,518.96C643.26,517.77 643.66,516.24 644.85,515.54C646.04,514.84 647.57,515.24 648.27,516.43L682.24,574.47C682.94,575.66 682.54,577.19 681.34,577.89C680.95,578.13 680.52,578.24 680.09,578.24Z" style="fill:rgb(255,255,61);fill-rule:nonzero;"/>
            </g>
            <g>
                <path d="M681.74,573.87C680.88,573.87 680.04,573.43 679.58,572.63L662.91,544.09C662.21,542.9 662.62,541.37 663.81,540.67C665,539.97 666.53,540.38 667.23,541.57L683.9,570.11C684.6,571.3 684.19,572.83 683,573.53C682.6,573.76 682.17,573.87 681.74,573.87Z" style="fill:rgb(255,255,61);fill-rule:nonzero;"/>
            </g>
            <g>
                <path d="M683.29,569.58C682.43,569.58 681.59,569.14 681.13,568.34L680.93,568.01C680.23,566.82 680.64,565.29 681.83,564.59C683.02,563.89 684.55,564.3 685.25,565.49L685.45,565.83C686.15,567.02 685.74,568.55 684.55,569.25C684.15,569.47 683.71,569.58 683.29,569.58Z" style="fill:rgb(255,255,59);fill-rule:nonzero;"/>
            </g>
        </g>
    </g>
</svg>
